Coordinates
version=1
nRows=8
nColumns=63
inDegrees=yes

Units are S.I. units (second, meters, Newtons, ...)
If the header above contains a line with 'inDegrees', this indicates whether rotational values are in degrees (yes) or radians (no).

endheader
time	pelvis_tilt	pelvis_list	pelvis_rotation	pelvis_tx	pelvis_ty	pelvis_tz	hip_flexion_r	hip_adduction_r	hip_rotation_r	knee_angle_r	knee_angle_r_beta	ankle_angle_r	subtalar_angle_r	mtp_angle_r	hip_flexion_l	hip_adduction_l	hip_rotation_l	knee_angle_l	knee_angle_l_beta	ankle_angle_l	subtalar_angle_l	mtp_angle_l	L5_S1_Flex_Ext	L5_S1_Lat_Bending	L5_S1_axial_rotation	L4_L5_Flex_Ext	L4_L5_Lat_Bending	L4_L5_axial_rotation	L3_L4_Flex_Ext	L3_L4_Lat_Bending	L3_L4_axial_rotation	L2_L3_Flex_Ext	L2_L3_Lat_Bending	L2_L3_axial_rotation	L1_L2_Flex_Ext	L1_L2_Lat_Bending	L1_L2_axial_rotation	L1_T12_Flex_Ext	L1_T12_Lat_Bending	L1_T12_axial_rotation	Abs_r3	Abs_r2	Abs_r1	Abs_t1	Abs_t2	neck_flexion	neck_bending	neck_rotation	arm_flex_r	arm_add_r	arm_rot_r	elbow_flex_r	pro_sup_r	wrist_flex_r	wrist_dev_r	arm_flex_l	arm_add_l	arm_rot_l	elbow_flex_l	pro_sup_l	wrist_flex_l	wrist_dev_l
0.661017	-0.314630	-0.695974	116.314230	0.293377	0.581071	0.926308	2.600207	-5.767898	-15.081652	18.284889	0.319132	34.910998	6.242036	0.000000	0.927957	5.551556	6.393159	9.479104	0.165442	29.129450	-2.898137	0.000000	-0.020053	-0.033136	-1.119709	-0.037240	-0.044071	-1.189690	-0.032945	-0.080567	-1.189690	-0.022918	-0.080567	-0.979745	-0.018621	-0.067571	-0.909763	-0.011458	-0.051328	-0.839782	-0.143236	-0.374843	-6.227484	0.000000	0.000000	25.431839	0.843263	9.685095	-4.345426	-17.911059	22.694721	34.039892	70.851181	-13.150995	-4.685578	7.243173	-12.339194	108.210896	13.924677	51.666432	-3.216311	-2.910703
0.677966	-0.293578	-0.861991	116.278576	0.294362	0.580624	0.927144	3.064331	-5.778099	-14.657338	18.601682	0.324661	35.021605	5.729166	0.000000	1.298299	5.572566	6.149160	9.690340	0.169128	29.269567	-2.631492	0.000000	-0.016756	-0.063656	-1.113358	-0.031118	-0.084663	-1.182943	-0.027529	-0.154774	-1.182943	-0.019151	-0.154774	-0.974188	-0.015560	-0.129808	-0.904604	-0.009575	-0.098604	-0.835019	-0.119690	-0.720095	-6.192165	0.000000	0.000000	25.395787	1.391276	9.646009	-4.466544	-17.559505	21.592262	34.135448	70.576213	-13.338914	-4.984845	7.567079	-12.137859	119.050676	11.143307	43.724151	-3.595224	-3.858540
0.694915	-0.229078	-0.994605	116.253094	0.295114	0.580268	0.927921	3.483992	-5.740194	-14.279908	18.869815	0.329340	35.104511	5.287466	0.000000	1.593033	5.541132	5.886787	9.809792	0.171213	29.328891	-2.345457	0.000000	-0.014724	-0.083092	-1.101253	-0.027343	-0.110512	-1.170081	-0.024189	-0.202030	-1.170081	-0.016828	-0.202030	-0.963596	-0.013672	-0.169441	-0.894768	-0.008413	-0.128710	-0.825940	-0.105169	-0.939954	-6.124839	0.000000	0.000000	25.354458	1.847458	9.639305	-4.541730	-17.292631	20.661130	34.030577	70.050756	-13.614121	-5.511384	7.943539	-11.861351	129.864457	8.514692	35.840070	-4.434640	-4.936375
0.711864	-0.127832	-1.089760	116.276909	0.295526	0.580022	0.928614	3.829701	-5.667541	-14.034595	19.070957	0.332851	35.168425	4.991354	0.000000	1.801370	5.469903	5.729598	9.838262	0.171710	29.276890	-2.155930	0.000000	-0.013819	-0.091144	-1.096944	-0.025663	-0.121222	-1.165503	-0.022703	-0.221608	-1.165503	-0.015794	-0.221608	-0.959826	-0.012832	-0.185861	-0.891267	-0.007896	-0.141182	-0.822708	-0.098708	-1.031041	-6.100871	0.000000	0.000000	25.315203	2.217393	9.715857	-4.570650	-17.110834	19.891180	33.753103	69.499995	-13.922667	-6.115673	8.268456	-11.507724	139.931303	6.086514	28.140710	-5.556045	-6.249604
0.728814	0.003212	-1.138255	116.336369	0.295597	0.579923	0.929185	4.086320	-5.556963	-13.875497	19.197054	0.335052	35.199326	4.800355	0.000000	1.904678	5.361257	5.667175	9.763444	0.170404	29.115844	-2.051384	0.000000	-0.014095	-0.088657	-1.101550	-0.026175	-0.117914	-1.170397	-0.023156	-0.215560	-1.170397	-0.016109	-0.215560	-0.963856	-0.013088	-0.180789	-0.895010	-0.008054	-0.137330	-0.826163	-0.100676	-1.002904	-6.126492	0.000000	0.000000	25.265948	2.474502	9.836270	-4.510776	-17.059450	19.578723	33.325975	68.750339	-14.282885	-6.719294	8.487272	-11.089740	148.799915	3.910973	20.707352	-6.817587	-7.801546
0.745763	0.150646	-1.141537	116.459816	0.295280	0.579979	0.929640	4.233149	-5.434380	-13.914537	19.244685	0.335883	35.211163	4.819782	0.000000	1.908616	5.229554	5.743287	9.604688	0.167633	28.873452	-2.026421	0.000000	-0.014703	-0.077290	-1.118437	-0.027306	-0.102795	-1.188339	-0.024156	-0.187922	-1.188339	-0.016804	-0.187922	-0.978632	-0.013654	-0.157609	-0.908730	-0.008402	-0.119722	-0.838828	-0.105025	-0.874316	-6.220409	0.000000	0.000000	25.200365	2.625865	9.999507	-4.436435	-17.082254	19.406552	32.847747	68.281029	-14.571321	-7.148541	8.582426	-10.635510	156.161098	2.049891	13.749911	-8.053032	-9.510905
0.762712	0.295722	-1.083676	116.633853	0.294602	0.580224	0.929969	4.238527	-5.303569	-14.115107	19.201074	0.335122	35.191993	5.009486	0.000000	1.777366	5.086129	6.021487	9.335393	0.162933	28.550906	-2.153743	0.000000	-0.017382	-0.059016	-1.147422	-0.032280	-0.078491	-1.219136	-0.028557	-0.143491	-1.219136	-0.019866	-0.143491	-1.003995	-0.016141	-0.120345	-0.932281	-0.009932	-0.091415	-0.860567	-0.124157	-0.667597	-6.381619	0.000000	0.000000	25.105158	2.670566	10.196260	-4.323709	-17.206435	19.562186	32.347748	67.985171	-14.777210	-7.457247	8.558797	-10.192980	161.782707	0.580715	7.685192	-9.346523	-11.245419
0.779661	0.423675	-0.985273	116.862775	0.293646	0.580619	0.930210	4.122587	-5.188715	-14.498149	19.087690	0.333143	35.143925	5.356603	0.000000	1.559530	4.941631	6.324908	9.014590	0.157334	28.234406	-2.175988	0.000000	-0.020059	-0.038152	-1.182046	-0.037251	-0.050743	-1.255924	-0.032955	-0.092764	-1.255924	-0.022925	-0.092764	-1.034290	-0.018627	-0.077801	-0.960413	-0.011462	-0.059098	-0.886535	-0.143278	-0.431588	-6.574186	0.000000	0.000000	24.980266	2.629049	10.365256	-4.280904	-17.337217	19.591341	31.961481	68.352043	-14.734709	-7.437186	8.365118	-9.810173	165.152461	-0.355287	3.181881	-10.370330	-12.607478
